HIERARCHY
ROOT Pelvis
{
	OFFSET 0.000000 0.000000 0.000000
	CHANNELS 6 Xposition Yposition Zposition Xrotation Yrotation Zrotation
	JOINT LeftUpLeg_virtual
	{
		OFFSET 0.000000 0.000000 0.000000
		CHANNELS 3 Xrotation Yrotation Zrotation
		JOINT LeftUpLeg
		{
			OFFSET 8.479700 -4.795502 -0.379100
			CHANNELS 3 Xrotation Yrotation Zrotation
			JOINT LeftLeg
			{
				OFFSET 0.024144 -32.555107 0.112900
				CHANNELS 3 Xrotation Yrotation Zrotation
				JOINT LeftFoot
				{
					OFFSET -0.024144 -32.638630 -3.012600
					CHANNELS 3 Xrotation Yrotation Zrotation
					JOINT LeftToeBase
					{
						OFFSET 0.970200 -13.225400 11.864200
						CHANNELS 3 Xrotation Yrotation Zrotation
						End Site
						{
							OFFSET 0 0 0
						}
					}
				}
			}
		}
	}
	JOINT RightUpLeg_virtual
	{
		OFFSET 0.000000 0.000000 0.000000
		CHANNELS 3 Xrotation Yrotation Zrotation
		JOINT RightUpLeg
		{
			OFFSET -8.479700 -4.795502 -0.379100
			CHANNELS 3 Xrotation Yrotation Zrotation
			JOINT RightLeg
			{
				OFFSET -0.023144 -32.555092 0.112900
				CHANNELS 3 Xrotation Yrotation Zrotation
				JOINT RightFoot
				{
					OFFSET 0.023144 -32.638641 -3.012700
					CHANNELS 3 Xrotation Yrotation Zrotation
					JOINT RightToeBase
					{
						OFFSET -0.970200 -13.225400 11.864200
						CHANNELS 3 Xrotation Yrotation Zrotation
						End Site
						{
							OFFSET 0 0 0
						}
					}
				}
			}
		}
	}
	JOINT Hips_virtual
	{
		OFFSET 0.000000 0.000000 0.000000
		CHANNELS 3 Xrotation Yrotation Zrotation
		JOINT Hips
		{
			OFFSET -0.000000 -0.000000 -0.000000
			CHANNELS 3 Xrotation Yrotation Zrotation
			JOINT Spine
			{
				OFFSET 0.000000 7.722000 1.166200
				CHANNELS 3 Xrotation Yrotation Zrotation
				JOINT Spine1
				{
					OFFSET 0.000000 12.024101 0.248800
					CHANNELS 3 Xrotation Yrotation Zrotation
					JOINT Spine2
					{
						OFFSET 0.000000 11.502998 -0.491200
						CHANNELS 3 Xrotation Yrotation Zrotation
						JOINT Neck_virtual
						{
							OFFSET 0.000000 0.000000 0.000000
							CHANNELS 3 Xrotation Yrotation Zrotation
							JOINT Neck
							{
								OFFSET 0.000000 18.430702 -3.123100
								CHANNELS 3 Xrotation Yrotation Zrotation
								JOINT Head
								{
									OFFSET 0.000000 9.051102 1.034000
									CHANNELS 3 Xrotation Yrotation Zrotation
									End Site
									{
										OFFSET 0 0 0
									}
								}
							}
						}
						JOINT LeftShoulder_virtual
						{
							OFFSET 0.000000 0.000000 0.000000
							CHANNELS 3 Xrotation Yrotation Zrotation
							JOINT LeftShoulder
							{
								OFFSET 6.197800 13.665199 -4.064700
								CHANNELS 3 Xrotation Yrotation Zrotation
								JOINT LeftArm
								{
									OFFSET 7.778100 -0.187103 -1.709300
									CHANNELS 3 Xrotation Yrotation Zrotation
									JOINT LeftForeArm
									{
										OFFSET 22.049376 0.000000 0.000000
										CHANNELS 3 Xrotation Yrotation Zrotation
										JOINT LeftHand
										{
											OFFSET 23.009392 0.000000 0.000000
											CHANNELS 3 Xrotation Yrotation Zrotation
											End Site
											{
												OFFSET 0 0 0
											}
										}
									}
								}
							}
						}
						JOINT RightShoulder_virtual
						{
							OFFSET 0.000000 0.000000 0.000000
							CHANNELS 3 Xrotation Yrotation Zrotation
							JOINT RightShoulder
							{
								OFFSET -6.197800 13.665199 -4.064700
								CHANNELS 3 Xrotation Yrotation Zrotation
								JOINT RightArm
								{
									OFFSET -7.778100 -0.187103 -1.709300
									CHANNELS 3 Xrotation Yrotation Zrotation
									JOINT RightForeArm
									{
										OFFSET -22.049376 0.000000 0.000000
										CHANNELS 3 Xrotation Yrotation Zrotation
										JOINT RightHand
										{
											OFFSET -23.009392 0.000000 0.000000
											CHANNELS 3 Xrotation Yrotation Zrotation
											End Site
											{
												OFFSET 0 0 0
											}
										}
									}
								}
							}
						}
					}
				}
			}
		}
	}
}
MOTION
Frames: 11
Frame Time: 0.03333333
0.226736 71.046913 -0.344742 0.000000 0.000000 0.000000 8.132300 -10.928341 3.204893 -54.148172 4.655792 20.460178 48.884822 3.126663 5.976721 -0.284797 1.114119 -18.382225 0.000000 0.000000 0.000000 8.132300 -10.928341 3.204893 -35.322549 1.488674 -28.723493 52.615269 -0.830172 -1.433546 -19.529939 -5.512720 24.331343 0.000000 0.000000 0.000000 8.132300 -10.928341 3.204893 0.000000 -0.000001 0.000000 8.209380 1.680320 -1.586463 6.501512 1.669132 -0.600553 0.000000 0.000000 0.000000 6.503121 1.665275 -0.587176 -1.740207 -0.081395 0.346735 0.000000 0.000000 0.000000 6.503121 1.665275 -0.587176 2.609673 -14.773708 -9.661128 -25.061861 -6.032406 -45.945002 -179.999950 -55.274255 -179.999937 0.000000 0.000000 0.000000 6.503121 1.665275 -0.587176 1.602766 8.845881 9.965477 3.934439 4.254982 41.144383 -0.003326 89.362036 0.003679 0.000000 0.000000 0.000000 
0.285491 71.092827 -0.289783 0.000000 0.000000 0.000000 8.158660 -10.909639 3.134602 -54.160637 4.707082 20.429938 48.873958 3.139255 6.055821 -0.329827 1.117755 -18.345991 0.000000 0.000000 0.000000 8.158660 -10.909639 3.134602 -35.167066 1.424779 -28.710680 52.336970 -0.878795 -1.392804 -19.374730 -5.493688 24.395650 0.000000 0.000000 0.000000 8.158660 -10.909639 3.134602 0.000000 0.000000 0.000000 8.186193 1.672511 -1.610120 6.485265 1.665929 -0.610208 0.000000 0.000000 0.000000 6.486868 1.662228 -0.596724 -1.712118 -0.092268 0.384981 0.000000 0.000000 0.000000 6.486868 1.662228 -0.596724 2.607220 -14.764986 -9.614778 -25.050250 -6.005732 -46.040867 179.999991 -55.122997 -179.999991 0.000000 0.000000 0.000000 6.486868 1.662228 -0.596724 1.606108 8.884876 9.946590 4.076247 4.257995 41.187649 -0.003804 89.427332 0.004184 0.000000 0.000000 0.000000 
0.340867 71.121300 -0.243258 0.000000 0.000000 0.000000 8.217454 -10.914540 3.057036 -54.224520 4.690064 20.436418 48.920236 3.195302 6.089064 -0.381152 1.122887 -18.313870 0.000000 0.000000 0.000000 8.217454 -10.914540 3.057036 -35.116598 1.326806 -28.681703 52.115730 -0.855219 -1.394696 -19.234779 -5.476520 24.452624 0.000000 0.000000 0.000000 8.217454 -10.914540 3.057036 0.000000 0.000001 0.000000 8.163423 1.669228 -1.639105 6.469515 1.666600 -0.622083 0.000000 0.000000 0.000000 6.471178 1.662708 -0.608366 -1.660625 -0.094398 0.408575 0.000000 0.000000 0.000000 6.471178 1.662708 -0.608366 2.606484 -14.776930 -9.549424 -25.079259 -5.936114 -46.237451 179.999991 -55.052383 179.999991 0.000000 0.000000 0.000000 6.471178 1.662708 -0.608366 1.612933 8.972300 9.892406 4.280584 4.276497 41.166609 0.001183 89.495258 -0.001452 0.000000 0.000000 0.000000 
0.391464 71.137199 -0.202053 0.000000 0.000000 0.000000 8.265566 -10.944722 3.009295 -54.250574 4.608919 20.446791 48.994146 3.288427 6.047499 -0.451080 1.130577 -18.292164 0.000000 0.000000 0.000000 8.265566 -10.944722 3.009295 -35.089598 1.278217 -28.667930 51.953882 -0.816865 -1.400136 -19.121775 -5.464331 24.506288 0.000000 0.000000 0.000000 8.265566 -10.944722 3.009295 0.000000 0.000000 0.000000 8.141915 1.669347 -1.670016 6.454651 1.669949 -0.635075 0.000000 0.000000 0.000000 6.456426 1.665763 -0.621081 -1.598637 -0.092581 0.422500 0.000000 0.000000 0.000000 6.456426 1.665763 -0.621081 2.606933 -14.801047 -9.475213 -25.130218 -5.847825 -46.486411 -179.999978 -55.028751 -179.999978 0.000000 0.000000 0.000000 6.456426 1.665763 -0.621081 1.621833 9.085368 9.820734 4.518113 4.299210 41.105209 -0.000192 89.562993 -0.000224 0.000000 0.000000 0.000000 
0.437798 71.140755 -0.161327 0.000000 0.000000 0.000000 8.264965 -11.001294 2.974827 -54.219377 4.487163 20.463914 49.111615 3.430594 5.960721 -0.539922 1.141765 -18.279842 0.000000 0.000000 0.000000 8.264965 -11.001294 2.974827 -35.030797 1.278663 -28.673161 51.844568 -0.771264 -1.383571 -19.046430 -5.459149 24.554267 0.000000 0.000000 0.000000 8.264965 -11.001294 2.974827 0.000000 0.000001 0.000000 8.123232 1.673656 -1.703036 6.441681 1.676749 -0.649059 0.000000 0.000000 0.000000 6.443582 1.672274 -0.634775 -1.530194 -0.088174 0.425715 0.000000 0.000000 0.000000 6.443582 1.672274 -0.634775 2.608810 -14.838624 -9.394289 -25.202300 -5.748878 -46.782267 179.999978 -55.053702 179.999978 0.000000 0.000000 0.000000 6.443582 1.672274 -0.634775 1.632838 9.221985 9.735140 4.785613 4.318989 40.998395 0.001383 89.635229 -0.002145 0.000000 0.000000 0.000000 
0.484502 71.141243 -0.129065 0.000000 0.000000 0.000000 8.294580 -11.039025 2.940799 -54.237142 4.377032 20.466254 49.220037 3.535027 5.906071 -0.616460 1.151749 -18.271502 0.000000 0.000000 0.000000 8.294580 -11.039025 2.940799 -35.038549 1.228376 -28.642974 51.746866 -0.733328 -1.465006 -18.958339 -5.458819 24.638348 0.000000 0.000000 0.000000 8.294580 -11.039025 2.940799 0.000001 -0.000001 0.000000 8.108793 1.682355 -1.737526 6.431514 1.687193 -0.663702 0.000000 0.000000 0.000000 6.433502 1.682589 -0.649155 -1.461468 -0.083128 0.418180 0.000000 0.000000 0.000000 6.433502 1.682589 -0.649155 2.612184 -14.888091 -9.310858 -25.290143 -5.650528 -47.109239 179.999991 -55.122471 -179.999991 0.000000 0.000000 0.000000 6.433502 1.682589 -0.649155 1.645605 9.375551 9.642419 5.074299 4.329379 40.844347 -0.001880 89.709931 0.001687 0.000000 0.000000 0.000000 
0.536969 71.140137 -0.103737 0.000000 0.000000 0.000000 8.293450 -11.079261 2.903091 -54.236087 4.286006 20.451393 49.329586 3.648947 5.884781 -0.694265 1.161844 -18.271910 0.000000 0.000000 0.000000 8.293450 -11.079261 2.903091 -35.025934 1.179894 -28.669405 51.654798 -0.644669 -1.464944 -18.873614 -5.447252 24.668936 0.000000 0.000000 0.000000 8.293450 -11.079261 2.903091 0.000000 0.000000 0.000000 8.099704 1.694475 -1.772855 6.424812 1.700720 -0.678535 0.000000 0.000000 0.000000 6.426778 1.696292 -0.663808 -1.399311 -0.079353 0.400461 0.000000 0.000000 0.000000 6.426778 1.696292 -0.663808 2.616660 -14.944695 -9.230450 -25.384659 -5.564505 -47.444502 -179.999937 -55.224986 -179.999964 0.000000 0.000000 0.000000 6.426778 1.696292 -0.663808 1.659456 9.536460 9.550708 5.371333 4.326778 40.644700 -0.015327 89.787857 0.014681 0.000000 0.000000 0.000000 
0.584611 71.133774 -0.082598 0.000000 0.000000 0.000000 8.314746 -11.112975 2.885138 -54.272997 4.236923 20.411476 49.430789 3.739431 5.917606 -0.760590 1.171899 -18.287637 0.000000 0.000000 0.000000 8.314746 -11.112975 2.885138 -35.054737 1.138040 -28.682959 51.592428 -0.577776 -1.511545 -18.801091 -5.442761 24.719858 0.000000 0.000000 0.000000 8.314746 -11.112975 2.885138 0.000000 0.000000 0.000000 8.095948 1.708718 -1.807061 6.421642 1.716006 -0.693091 0.000000 0.000000 0.000000 6.423508 1.712110 -0.678285 -1.349582 -0.077994 0.373066 0.000000 0.000000 0.000000 6.423508 1.712110 -0.678285 2.621523 -15.001271 -9.158823 -25.474717 -5.499713 -47.762878 -179.999950 -55.347960 -179.999950 0.000000 0.000000 0.000000 6.423508 1.712110 -0.678285 1.673463 9.694525 9.466827 5.662579 4.311338 40.405200 0.002052 89.861520 -0.001779 0.000000 0.000000 0.000000 
0.629909 71.124443 -0.068785 0.000000 0.000000 0.000000 8.350242 -11.136801 2.844478 -54.351200 4.190290 20.379633 49.533799 3.825516 5.983924 -0.813951 1.180239 -18.309353 0.000000 0.000000 0.000000 8.350242 -11.136801 2.844478 -35.079858 1.120613 -28.678465 51.537018 -0.544138 -1.509185 -18.738108 -5.436449 24.753705 0.000000 0.000000 0.000000 8.350242 -11.136801 2.844478 0.000000 0.000000 0.000000 8.096592 1.722675 -1.839514 6.421329 1.731230 -0.707043 0.000000 0.000000 0.000000 6.423004 1.728190 -0.692274 -1.316000 -0.078988 0.336014 0.000000 0.000000 0.000000 6.423004 1.728190 -0.692274 2.625894 -15.049658 -9.100763 -25.549175 -5.460087 -48.042034 -179.999923 -55.477371 -179.999923 0.000000 0.000000 0.000000 6.423004 1.728190 -0.692274 1.686765 9.841472 9.393906 5.934954 4.285741 40.135920 0.012163 89.937445 -0.013285 0.000000 0.000000 0.000000 
0.669551 71.114975 -0.061327 0.000000 0.000000 0.000000 8.383504 -11.167248 2.808009 -54.424590 4.154136 20.358757 49.623349 3.888740 6.047664 -0.862521 1.188801 -18.331516 0.000000 0.000000 0.000000 8.383504 -11.167248 2.808009 -35.114607 1.103974 -28.669036 51.491792 -0.508210 -1.509491 -18.689597 -5.430058 24.773311 0.000000 0.000000 0.000000 8.383504 -11.167248 2.808009 0.000000 -0.000001 0.000000 8.099726 1.734128 -1.868891 6.422558 1.744420 -0.720344 0.000000 0.000000 0.000000 6.423972 1.742427 -0.705709 -1.299701 -0.080919 0.288882 0.000000 0.000000 0.000000 6.423972 1.742427 -0.705709 2.628810 -15.082699 -9.059134 -25.598970 -5.443817 -48.266280 179.999978 -55.600469 179.999978 0.000000 0.000000 0.000000 6.423972 1.742427 -0.705709 1.698763 9.972828 9.330230 6.178018 4.252854 39.851852 0.110753 90.000003 0.120066 0.000000 0.000000 0.000000 
0.703893 71.104515 -0.058807 0.000000 0.000000 0.000000 8.404562 -11.208208 2.794959 -54.471117 4.116952 20.338387 49.703300 3.980214 6.077177 -0.896215 1.194863 -18.348180 0.000000 0.000000 0.000000 8.404562 -11.208208 2.794959 -35.155475 1.100630 -28.674323 51.466616 -0.461851 -1.516694 -18.659628 -5.425171 24.780678 0.000000 0.000000 0.000000 8.404562 -11.208208 2.794959 0.000000 -0.000001 0.000000 8.102763 1.741271 -1.894831 6.423410 1.753933 -0.733277 0.000000 0.000000 0.000000 6.424577 1.752989 -0.718849 -1.299658 -0.081479 0.231468 0.000000 0.000000 0.000000 6.424577 1.752989 -0.718849 2.629693 -15.096082 -9.034250 -25.618551 -5.444277 -48.427718 -179.999978 -55.706978 -179.999964 0.000000 0.000000 0.000000 6.424577 1.752989 -0.718849 1.709303 10.088480 9.269796 6.384737 4.213004 39.571845 179.969174 89.940655 -179.970540 0.000000 0.000000 0.000000 
